# xmcd
#
# Track frame offsets:
#	150
#	14950
#	30941
#	44248
#	62398
#	77884
#	97337
#	109643
#	126375
#	143387
#	163410
#	187896
#	208425
#	225541
#
# Disc length: 3235 seconds
#
# Revision: 2
# Processed by: cddbd v1.5.2PL0 Copyright (c) Steve Scherf et al.
# Submitted via: audiograbber 1.83.01
#
DISCID=ca0ca10e
DTITLE=The Judds - The Essential
DYEAR=2011
DGENRE=Country
TTITLE0=Mama He's Crazy
TTITLE1=Why Not Me
TTITLE2=Girls Night Out
TTITLE3=Love Is Alive
TTITLE4=Have Mercy
TTITLE5=Grandpa (Tell Me 'Bout the Good Old Days
TTITLE6=Rockin' With the Rhythm of the Rain
TTITLE7=I Know Where I'm Going
TTITLE8=Turn It Loose
TTITLE9=Young Love
TTITLE10=Love Can Buid a Bridge
TTITLE11=Flies on the Butter (You Can't Go Home Again
TTITLE12=I Will Stand By You
TTITLE13=Back Home (with Alison Krauss
EXTD=
EXTT0=
EXTT1=
EXTT2=
EXTT3=
EXTT4=
EXTT5=
EXTT6=
EXTT7=
EXTT8=
EXTT9=
EXTT10=
EXTT11=
EXTT12=
EXTT13=
PLAYORDER=
